<svg xmlns="http://www.w3.org/2000/svg" viewBox="0 0 256 256" fill="none">
  <rect width="256" height="256" rx="40" fill="#F25A5A"/>
  <path d="M128 48c-44.183 0-80 35.817-80 80s35.817 80 80 80 80-35.817 80-80-35.817-80-80-80zm0 140c-33.137 0-60-26.863-60-60s26.863-60 60-60 60 26.863 60 60-26.863 60-60 60z" fill="white"/>
  <path d="M148 108c0-11.046-8.954-20-20-20s-20 8.954-20 20v40c0 11.046 8.954 20 20 20s20-8.954 20-20v-40z" fill="white"/>
  <circle cx="128" cy="88" r="12" fill="white"/>
  <path d="M164 148c-4.418 0-8 3.582-8 8v12c0 15.464-12.536 28-28 28s-28-12.536-28-28v-12c0-4.418-3.582-8-8-8s-8 3.582-8 8v12c0 24.301 19.699 44 44 44s44-19.699 44-44v-12c0-4.418-3.582-8-8-8z" fill="white"/>
</svg>
